PathFileType	4	(X/Y/Z)	C:\Users\italobelli\Desktop\GitHub\PTbot_officialCBL\Personal_Results\ABD22_noisy1.trc
DataRate	CameraRate	NumFrames	NumMarkers	Units	OrigDataRate	OrigDataStartFrame	OrigNumFrames
106.125000	106.125000	51	9	m	106.125000	426	850
Frame#	Time		gu		centelbow		EpL		centpxt8		centijc7		ij		ts		aa		ai
			X1	Y1	Z1	X2	Y2	Z2	X3	Y3	Z3	X4	Y4	Z4	X5	Y5	Z5	X6	Y6	Z6	X7	Y7	Z7	X8	Y8	Z8	X9	Y9	Z9

426	4.0047	-0.11841	0.068666	0.093359	-0.066926	0.28403	0.19456	-0.087531	0.29476	0.17221	-0.046816	-0.15316	-0.008669	-0.046816	0.031938	-0.008669	0	0	0	-0.14609	-0.020414	0.049139	-0.15726	0.090216	0.092279	-0.14445	-0.056595	0.15672
427	4.0141	-0.11844	0.068689	0.093328	-0.067163	0.28365	0.19485	-0.08773	0.29441	0.17247	-0.046816	-0.15316	-0.008669	-0.046816	0.031938	-0.008669	0	0	0	-0.14603	-0.020421	0.049063	-0.15728	0.090176	0.092263	-0.14446	-0.056694	0.15663
428	4.0236	-0.11847	0.068717	0.093303	-0.067425	0.28326	0.19518	-0.087951	0.29406	0.17277	-0.046816	-0.15316	-0.008669	-0.046816	0.031938	-0.008669	0	0	0	-0.14594	-0.020426	0.048985	-0.15729	0.090132	0.092254	-0.14446	-0.056801	0.15652
429	4.033	-0.11849	0.068748	0.093285	-0.067711	0.28286	0.19555	-0.088193	0.2937	0.17311	-0.046816	-0.15316	-0.008669	-0.046816	0.031938	-0.008669	0	0	0	-0.14585	-0.020428	0.048904	-0.15731	0.090085	0.092251	-0.14446	-0.056915	0.15641
430	4.0424	-0.11852	0.068783	0.093272	-0.06802	0.28245	0.19596	-0.088454	0.29333	0.17348	-0.046816	-0.15316	-0.008669	-0.046816	0.031938	-0.008669	0	0	0	-0.14573	-0.020427	0.048819	-0.15733	0.090033	0.092255	-0.14445	-0.057037	0.15629
431	4.0518	-0.11855	0.068821	0.093266	-0.06835	0.28203	0.1964	-0.088734	0.29295	0.1739	-0.046816	-0.15316	-0.008669	-0.046816	0.031938	-0.008669	0	0	0	-0.1456	-0.020424	0.048732	-0.15735	0.089979	0.092264	-0.14444	-0.057165	0.15616
432	4.0612	-0.11857	0.068862	0.093265	-0.0687	0.2816	0.19689	-0.089032	0.29256	0.17435	-0.046816	-0.15316	-0.008669	-0.046816	0.031938	-0.008669	0	0	0	-0.14546	-0.020418	0.048642	-0.15736	0.089921	0.092279	-0.14443	-0.057301	0.15603
433	4.0707	-0.1186	0.068906	0.09327	-0.06907	0.28116	0.1974	-0.089347	0.29217	0.17484	-0.046816	-0.15316	-0.008669	-0.046816	0.031938	-0.008669	0	0	0	-0.1453	-0.02041	0.048549	-0.15738	0.089859	0.0923	-0.14442	-0.057444	0.15589
434	4.0801	-0.11862	0.068953	0.09328	-0.069458	0.28071	0.19795	-0.089678	0.29177	0.17536	-0.046816	-0.15316	-0.008669	-0.046816	0.031938	-0.008669	0	0	0	-0.14513	-0.020399	0.048453	-0.15739	0.089795	0.092326	-0.14441	-0.057593	0.15574
435	4.0895	-0.11865	0.069002	0.093296	-0.069862	0.28025	0.19854	-0.090023	0.29136	0.17592	-0.046816	-0.15316	-0.008669	-0.046816	0.031938	-0.008669	0	0	0	-0.14495	-0.020386	0.048355	-0.15741	0.089727	0.092358	-0.14439	-0.057749	0.15558
436	4.0989	-0.11867	0.069055	0.093317	-0.070283	0.27978	0.19916	-0.090382	0.29095	0.17651	-0.046816	-0.15316	-0.008669	-0.046816	0.031938	-0.008669	0	0	0	-0.14475	-0.02037	0.048253	-0.15743	0.089656	0.092396	-0.14437	-0.057911	0.15542
437	4.1084	-0.1187	0.069109	0.093343	-0.070718	0.2793	0.19981	-0.090754	0.29053	0.17713	-0.046816	-0.15316	-0.008669	-0.046816	0.031938	-0.008669	0	0	0	-0.14455	-0.020353	0.048149	-0.15744	0.089582	0.092439	-0.14435	-0.05808	0.15525
438	4.1178	-0.11872	0.069167	0.093374	-0.071167	0.27881	0.20049	-0.091138	0.2901	0.17779	-0.046816	-0.15316	-0.008669	-0.046816	0.031938	-0.008669	0	0	0	-0.14434	-0.020333	0.048043	-0.15746	0.089506	0.092487	-0.14432	-0.058254	0.15508
439	4.1272	-0.11874	0.069226	0.09341	-0.071628	0.27831	0.2012	-0.091532	0.28966	0.17847	-0.046816	-0.15316	-0.008669	-0.046816	0.031938	-0.008669	0	0	0	-0.14411	-0.020311	0.047933	-0.15747	0.089426	0.09254	-0.14429	-0.058434	0.1549
440	4.1366	-0.11877	0.069287	0.09345	-0.0721	0.2778	0.20195	-0.091936	0.28922	0.17919	-0.046816	-0.15316	-0.008669	-0.046816	0.031938	-0.008669	0	0	0	-0.14388	-0.020287	0.047822	-0.15748	0.089344	0.092597	-0.14427	-0.05862	0.15471
441	4.1461	-0.11879	0.069351	0.093496	-0.072582	0.27728	0.20272	-0.092349	0.28877	0.17994	-0.046816	-0.15316	-0.008669	-0.046816	0.031938	-0.008669	0	0	0	-0.14364	-0.020261	0.047707	-0.1575	0.089259	0.09266	-0.14423	-0.058811	0.15451
442	4.1555	-0.11881	0.069416	0.093545	-0.073074	0.27676	0.20352	-0.09277	0.28832	0.18071	-0.046816	-0.15316	-0.008669	-0.046816	0.031938	-0.008669	0	0	0	-0.1434	-0.020234	0.047591	-0.15751	0.089172	0.092727	-0.1442	-0.059007	0.15431
443	4.1649	-0.11883	0.069483	0.093599	-0.073573	0.27622	0.20434	-0.093197	0.28786	0.18152	-0.046816	-0.15316	-0.008669	-0.046816	0.031938	-0.008669	0	0	0	-0.14314	-0.020204	0.047471	-0.15752	0.089082	0.092799	-0.14417	-0.059209	0.15411
444	4.1743	-0.11885	0.069551	0.093657	-0.074078	0.27568	0.2052	-0.09363	0.28739	0.18235	-0.046816	-0.15316	-0.008669	-0.046816	0.031938	-0.008669	0	0	0	-0.14289	-0.020173	0.04735	-0.15754	0.08899	0.092875	-0.14413	-0.059415	0.1539
445	4.1837	-0.11887	0.069621	0.093719	-0.07459	0.27512	0.20608	-0.094068	0.28692	0.18321	-0.046816	-0.15316	-0.008669	-0.046816	0.031938	-0.008669	0	0	0	-0.14262	-0.020139	0.047226	-0.15755	0.088895	0.092956	-0.14409	-0.059626	0.15368
446	4.1932	-0.11889	0.069692	0.093784	-0.075105	0.27456	0.20698	-0.09451	0.28643	0.1841	-0.046816	-0.15316	-0.008669	-0.046816	0.031938	-0.008669	0	0	0	-0.14235	-0.020105	0.0471	-0.15756	0.088798	0.093041	-0.14405	-0.059842	0.15346
447	4.2026	-0.1189	0.069764	0.093854	-0.075624	0.27399	0.20791	-0.094954	0.28595	0.18501	-0.046816	-0.15316	-0.008669	-0.046816	0.031938	-0.008669	0	0	0	-0.14208	-0.020068	0.046971	-0.15757	0.088699	0.09313	-0.14401	-0.060062	0.15323
448	4.212	-0.11892	0.069838	0.093927	-0.076145	0.27342	0.20886	-0.0954	0.28546	0.18595	-0.046816	-0.15316	-0.008669	-0.046816	0.031938	-0.008669	0	0	0	-0.14181	-0.02003	0.046841	-0.15758	0.088598	0.093222	-0.14397	-0.060287	0.15299
449	4.2214	-0.11893	0.069912	0.094003	-0.076667	0.27283	0.20984	-0.095847	0.28496	0.18691	-0.046816	-0.15316	-0.008669	-0.046816	0.031938	-0.008669	0	0	0	-0.14153	-0.019991	0.046708	-0.15759	0.088495	0.093319	-0.14392	-0.060515	0.15275
450	4.2309	-0.11895	0.069987	0.094083	-0.077188	0.27224	0.21083	-0.096293	0.28445	0.18789	-0.046816	-0.15316	-0.008669	-0.046816	0.031938	-0.008669	0	0	0	-0.14126	-0.01995	0.046573	-0.1576	0.08839	0.093419	-0.14387	-0.060747	0.15251
451	4.2403	-0.11896	0.070062	0.094166	-0.077709	0.27164	0.21185	-0.096738	0.28395	0.1889	-0.046816	-0.15316	-0.008669	-0.046816	0.031938	-0.008669	0	0	0	-0.14098	-0.019907	0.046436	-0.15761	0.088284	0.093523	-0.14383	-0.060983	0.15226
452	4.2497	-0.11897	0.070138	0.094252	-0.078227	0.27103	0.21289	-0.097181	0.28343	0.18992	-0.046816	-0.15316	-0.008669	-0.046816	0.031938	-0.008669	0	0	0	-0.1407	-0.019864	0.046297	-0.15762	0.088175	0.09363	-0.14378	-0.061222	0.15201
453	4.2591	-0.11898	0.070215	0.094341	-0.078741	0.27042	0.21394	-0.097621	0.28291	0.19097	-0.046816	-0.15316	-0.008669	-0.046816	0.031938	-0.008669	0	0	0	-0.14043	-0.019819	0.046155	-0.15763	0.088065	0.093741	-0.14373	-0.061465	0.15175
454	4.2686	-0.11899	0.070291	0.094432	-0.07925	0.2698	0.21502	-0.098056	0.28239	0.19204	-0.046816	-0.15316	-0.008669	-0.046816	0.031938	-0.008669	0	0	0	-0.14015	-0.019773	0.046012	-0.15763	0.087953	0.093855	-0.14368	-0.061711	0.15148
455	4.278	-0.119	0.070368	0.094526	-0.079754	0.26917	0.21611	-0.098486	0.28186	0.19313	-0.046816	-0.15316	-0.008669	-0.046816	0.031938	-0.008669	0	0	0	-0.13988	-0.019726	0.045867	-0.15764	0.08784	0.093972	-0.14362	-0.06196	0.15121
456	4.2874	-0.11901	0.070445	0.094623	-0.08025	0.26853	0.21722	-0.098909	0.28132	0.19424	-0.046816	-0.15316	-0.008669	-0.046816	0.031938	-0.008669	0	0	0	-0.13961	-0.019678	0.04572	-0.15765	0.087726	0.094091	-0.14357	-0.062211	0.15094
457	4.2968	-0.11901	0.070521	0.094722	-0.080738	0.26789	0.21834	-0.099325	0.28078	0.19536	-0.046816	-0.15316	-0.008669	-0.046816	0.031938	-0.008669	0	0	0	-0.13934	-0.019629	0.045572	-0.15765	0.08761	0.094214	-0.14351	-0.062465	0.15066
458	4.3062	-0.11902	0.070597	0.094823	-0.081217	0.26724	0.21948	-0.099733	0.28023	0.19651	-0.046816	-0.15316	-0.008669	-0.046816	0.031938	-0.008669	0	0	0	-0.13908	-0.019579	0.045421	-0.15766	0.087493	0.094339	-0.14346	-0.062722	0.15038
459	4.3157	-0.11902	0.070673	0.094926	-0.081685	0.26659	0.22064	-0.10013	0.27968	0.19767	-0.046816	-0.15316	-0.008669	-0.046816	0.031938	-0.008669	0	0	0	-0.13882	-0.019528	0.045269	-0.15766	0.087375	0.094467	-0.1434	-0.062981	0.15009
460	4.3251	-0.11902	0.070748	0.095031	-0.082142	0.26593	0.2218	-0.10052	0.27913	0.19884	-0.046816	-0.15316	-0.008669	-0.046816	0.031938	-0.008669	0	0	0	-0.13857	-0.019476	0.045115	-0.15766	0.087256	0.094598	-0.14335	-0.063242	0.1498
461	4.3345	-0.11902	0.070822	0.095138	-0.082586	0.26526	0.22298	-0.1009	0.27857	0.20003	-0.046816	-0.15316	-0.008669	-0.046816	0.031938	-0.008669	0	0	0	-0.13833	-0.019423	0.044959	-0.15767	0.087136	0.094731	-0.14329	-0.063505	0.14951
462	4.3439	-0.11902	0.070895	0.095247	-0.083016	0.26459	0.22417	-0.10126	0.27801	0.20124	-0.046816	-0.15316	-0.008669	-0.046816	0.031938	-0.008669	0	0	0	-0.13809	-0.01937	0.044802	-0.15767	0.087015	0.094866	-0.14323	-0.063769	0.14921
463	4.3534	-0.11901	0.070968	0.095357	-0.083431	0.26391	0.22538	-0.10161	0.27744	0.20246	-0.046816	-0.15316	-0.008669	-0.046816	0.031938	-0.008669	0	0	0	-0.13786	-0.019316	0.044643	-0.15767	0.086893	0.095003	-0.14317	-0.064035	0.14891
464	4.3628	-0.119	0.071039	0.095468	-0.08383	0.26323	0.22659	-0.10195	0.27687	0.20369	-0.046816	-0.15316	-0.008669	-0.046816	0.031938	-0.008669	0	0	0	-0.13764	-0.019262	0.044482	-0.15767	0.086771	0.095142	-0.14311	-0.064303	0.1486
465	4.3722	-0.119	0.071109	0.09558	-0.084212	0.26254	0.22781	-0.10227	0.27629	0.20493	-0.046816	-0.15316	-0.008669	-0.046816	0.031938	-0.008669	0	0	0	-0.13743	-0.019207	0.04432	-0.15767	0.086648	0.095283	-0.14305	-0.064572	0.1483
466	4.3816	-0.11899	0.071178	0.095694	-0.084575	0.26185	0.22904	-0.10258	0.27571	0.20619	-0.046816	-0.15316	-0.008669	-0.046816	0.031938	-0.008669	0	0	0	-0.13723	-0.019152	0.044157	-0.15767	0.086524	0.095426	-0.143	-0.064841	0.14798
467	4.391	-0.11898	0.071245	0.095809	-0.084918	0.26115	0.23028	-0.10286	0.27513	0.20745	-0.046816	-0.15316	-0.008669	-0.046816	0.031938	-0.008669	0	0	0	-0.13704	-0.019096	0.043992	-0.15767	0.0864	0.09557	-0.14294	-0.065112	0.14767
468	4.4005	-0.11896	0.071311	0.095924	-0.08524	0.26045	0.23153	-0.10313	0.27454	0.20873	-0.046816	-0.15316	-0.008669	-0.046816	0.031938	-0.008669	0	0	0	-0.13686	-0.01904	0.043826	-0.15766	0.086275	0.095716	-0.14288	-0.065383	0.14735
469	4.4099	-0.11895	0.071374	0.09604	-0.085541	0.25974	0.23278	-0.10338	0.27395	0.21001	-0.046816	-0.15316	-0.008669	-0.046816	0.031938	-0.008669	0	0	0	-0.13669	-0.018984	0.043658	-0.15766	0.086151	0.095863	-0.14282	-0.065655	0.14703
470	4.4193	-0.11893	0.071436	0.096157	-0.085819	0.25903	0.23404	-0.10361	0.27335	0.2113	-0.046816	-0.15316	-0.008669	-0.046816	0.031938	-0.008669	0	0	0	-0.13654	-0.018928	0.043489	-0.15766	0.086026	0.096011	-0.14276	-0.065926	0.1467
471	4.4287	-0.11891	0.071496	0.096274	-0.086072	0.25831	0.2353	-0.10382	0.27276	0.2126	-0.046816	-0.15316	-0.008669	-0.046816	0.031938	-0.008669	0	0	0	-0.1364	-0.018871	0.043319	-0.15765	0.0859	0.096161	-0.1427	-0.066199	0.14637
472	4.4382	-0.11889	0.071553	0.096391	-0.0863	0.25759	0.23656	-0.10401	0.27215	0.21391	-0.046816	-0.15316	-0.008669	-0.046816	0.031938	-0.008669	0	0	0	-0.13627	-0.018815	0.043148	-0.15764	0.085775	0.096312	-0.14264	-0.066471	0.14604
473	4.4476	-0.11886	0.071609	0.096508	-0.086502	0.25687	0.23783	-0.10417	0.27155	0.21522	-0.046816	-0.15316	-0.008669	-0.046816	0.031938	-0.008669	0	0	0	-0.13616	-0.018758	0.042976	-0.15764	0.08565	0.096463	-0.14258	-0.066742	0.14571
474	4.457	-0.11884	0.071661	0.096625	-0.086676	0.25614	0.2391	-0.10431	0.27094	0.21654	-0.046816	-0.15316	-0.008669	-0.046816	0.031938	-0.008669	0	0	0	-0.13606	-0.018701	0.042802	-0.15763	0.085525	0.096615	-0.14252	-0.067014	0.14537
475	4.4664	-0.11881	0.071711	0.096742	-0.086821	0.25541	0.24037	-0.10442	0.27033	0.21787	-0.046816	-0.15316	-0.008669	-0.046816	0.031938	-0.008669	0	0	0	-0.13598	-0.018645	0.042627	-0.15762	0.0854	0.096768	-0.14246	-0.067285	0.14503
476	4.4759	-0.11878	0.071759	0.096859	-0.086936	0.25467	0.24165	-0.10451	0.26972	0.21919	-0.046816	-0.15316	-0.008669	-0.046816	0.031938	-0.008669	0	0	0	-0.13592	-0.018589	0.042452	-0.15761	0.085276	0.096921	-0.1424	-0.067555	0.14469
